<svg width="32" height="32" viewBox="0 0 32 32" fill="none" xmlns="http://www.w3.org/2000/svg">
<path d="M16 16H15.25C15.25 16.3228 15.4565 16.6094 15.7628 16.7115L16 16ZM16.75 9.33329C16.75 8.91908 16.4142 8.58329 16 8.58329C15.5857 8.58329 15.25 8.91908 15.25 9.33329H16.75ZM19.7628 18.0448C20.1557 18.1758 20.5805 17.9634 20.7115 17.5705C20.8425 17.1775 20.6301 16.7528 20.2371 16.6218L19.7628 18.0448ZM16.75 16V9.33329H15.25V16H16.75ZM15.7628 16.7115L19.7628 18.0448L20.2371 16.6218L16.2371 15.2884L15.7628 16.7115ZM28.5833 16C28.5833 22.9495 22.9495 28.5833 16 28.5833V30.0833C23.778 30.0833 30.0833 23.778 30.0833 16H28.5833ZM16 28.5833C9.05038 28.5833 3.41663 22.9495 3.41663 16H1.91663C1.91663 23.778 8.22195 30.0833 16 30.0833V28.5833ZM3.41663 16C3.41663 9.05038 9.05038 3.41663 16 3.41663V1.91663C8.22195 1.91663 1.91663 8.22195 1.91663 16H3.41663ZM16 3.41663C22.9495 3.41663 28.5833 9.05038 28.5833 16H30.0833C30.0833 8.22195 23.778 1.91663 16 1.91663V3.41663Z" fill="#151313"/>
</svg>
