<svg width="32" height="32" viewBox="0 0 32 32" fill="none" xmlns="http://www.w3.org/2000/svg">
<path d="M23.6244 22.6372C23.2658 22.8447 23.1433 23.3035 23.3507 23.662C23.5581 24.0205 24.0169 24.1431 24.3755 23.9357L23.6244 22.6372ZM7.62437 23.9357C7.98292 24.1431 8.44171 24.0205 8.64912 23.662C8.85653 23.3035 8.73401 22.8447 8.37546 22.6372L7.62437 23.9357ZM10.6666 7.24996C10.2524 7.24996 9.91659 7.58575 9.91659 7.99996C9.91659 8.41417 10.2524 8.74996 10.6666 8.74996V7.24996ZM21.3333 8.74996C21.7475 8.74996 22.0833 8.41417 22.0833 7.99996C22.0833 7.58575 21.7475 7.24996 21.3333 7.24996V8.74996ZM10.6666 12.5833C10.2524 12.5833 9.91659 12.9191 9.91659 13.3333C9.91659 13.7475 10.2524 14.0833 10.6666 14.0833V12.5833ZM15.9999 14.0833C16.4141 14.0833 16.7499 13.7475 16.7499 13.3333C16.7499 12.9191 16.4141 12.5833 15.9999 12.5833V14.0833ZM13.4166 24.6666V23.9166H11.9166V24.6666H13.4166ZM12.6666 29.3333H11.9166C11.9166 29.5822 12.04 29.8148 12.2461 29.9543C12.4522 30.0939 12.7141 30.1221 12.9451 30.0296L12.6666 29.3333ZM15.9999 28L16.2785 27.3036C16.0997 27.2321 15.9002 27.2321 15.7214 27.3036L15.9999 28ZM19.3333 29.3333L19.0547 30.0296C19.2858 30.1221 19.5476 30.0939 19.7537 29.9543C19.9598 29.8148 20.0833 29.5822 20.0833 29.3333H19.3333ZM20.0833 24.6666V23.9166H18.5833V24.6666H20.0833ZM25.9166 7.99996V18.6666H27.4166V7.99996H25.9166ZM6.08325 18.6666V7.99996H4.58325V18.6666H6.08325ZM10.6666 3.41663H21.3333V1.91663H10.6666V3.41663ZM6.08325 7.99996C6.08325 5.46865 8.13528 3.41663 10.6666 3.41663V1.91663C7.30685 1.91663 4.58325 4.64023 4.58325 7.99996H6.08325ZM27.4166 7.99996C27.4166 4.64023 24.693 1.91663 21.3333 1.91663V3.41663C23.8646 3.41663 25.9166 5.46865 25.9166 7.99996H27.4166ZM25.9166 18.6666C25.9166 20.3622 24.9963 21.8436 23.6244 22.6372L24.3755 23.9357C26.1918 22.885 27.4166 20.9193 27.4166 18.6666H25.9166ZM4.58325 18.6666C4.58325 20.9193 5.80802 22.885 7.62437 23.9357L8.37546 22.6372C7.00354 21.8436 6.08325 20.3622 6.08325 18.6666H4.58325ZM19.2499 21.3333C19.2499 23.1282 17.7948 24.5833 15.9999 24.5833V26.0833C18.6233 26.0833 20.7499 23.9566 20.7499 21.3333H19.2499ZM15.9999 24.5833C14.205 24.5833 12.7499 23.1282 12.7499 21.3333H11.2499C11.2499 23.9566 13.3766 26.0833 15.9999 26.0833V24.5833ZM12.7499 21.3333C12.7499 19.5384 14.205 18.0833 15.9999 18.0833V16.5833C13.3766 16.5833 11.2499 18.7099 11.2499 21.3333H12.7499ZM15.9999 18.0833C17.7948 18.0833 19.2499 19.5384 19.2499 21.3333H20.7499C20.7499 18.7099 18.6233 16.5833 15.9999 16.5833V18.0833ZM10.6666 8.74996H21.3333V7.24996H10.6666V8.74996ZM10.6666 14.0833H15.9999V12.5833H10.6666V14.0833ZM11.9166 24.6666V29.3333H13.4166V24.6666H11.9166ZM12.9451 30.0296L16.2785 28.6963L15.7214 27.3036L12.388 28.6369L12.9451 30.0296ZM15.7214 28.6963L19.0547 30.0296L19.6118 28.6369L16.2785 27.3036L15.7214 28.6963ZM20.0833 29.3333V24.6666H18.5833V29.3333H20.0833Z" fill="#151313"/>
</svg>
