<svg width="32" height="32" viewBox="0 0 32 32" fill="none" xmlns="http://www.w3.org/2000/svg">
<ellipse cx="16" cy="22" rx="8" ry="3.33333" stroke="#151313" stroke-width="1.5" stroke-linejoin="round"/>
<circle cx="16" cy="10.6666" r="4" stroke="#151313" stroke-width="1.5" stroke-linejoin="round"/>
<path fill-rule="evenodd" clip-rule="evenodd" d="M8.11495 17.9591C6.67788 18.0605 5.37109 18.3392 4.3407 18.7513C3.6852 19.0135 3.10439 19.3445 2.67519 19.7504C2.24442 20.1578 1.91663 20.6924 1.91663 21.3333C1.91663 21.9742 2.24442 22.5088 2.67519 22.9162C3.10439 23.3221 3.6852 23.6531 4.3407 23.9153C4.90943 24.1428 5.56235 24.3296 6.2749 24.4684C5.8338 23.9194 5.5353 23.3263 5.40599 22.7042C5.22719 22.6471 5.05751 22.5864 4.89779 22.5225C4.34687 22.3022 3.95136 22.0585 3.70586 21.8264C3.46193 21.5957 3.41663 21.4288 3.41663 21.3333C3.41663 21.2378 3.46193 21.0709 3.70586 20.8402C3.95136 20.608 4.34687 20.3644 4.89779 20.144C5.25056 20.0029 5.6519 19.8774 6.09289 19.772C6.57169 19.0989 7.26097 18.4861 8.11495 17.9591Z" fill="#151313"/>
<path fill-rule="evenodd" clip-rule="evenodd" d="M26.594 22.7042C26.4647 23.3263 26.1662 23.9194 25.7251 24.4684C26.4376 24.3296 27.0905 24.1428 27.6593 23.9153C28.3148 23.6531 28.8956 23.3221 29.3248 22.9162C29.7555 22.5088 30.0833 21.9742 30.0833 21.3333C30.0833 20.6924 29.7555 20.1578 29.3248 19.7504C28.8956 19.3445 28.3148 19.0135 27.6593 18.7513C26.6289 18.3392 25.3221 18.0605 23.885 17.9591C24.739 18.4861 25.4283 19.0989 25.9071 19.772C26.3481 19.8774 26.7494 20.0029 27.1022 20.144C27.6531 20.3644 28.0486 20.608 28.2941 20.8402C28.538 21.0709 28.5833 21.2378 28.5833 21.3333C28.5833 21.4288 28.538 21.5957 28.2941 21.8264C28.0486 22.0585 27.6531 22.3022 27.1022 22.5225C26.9424 22.5864 26.7728 22.6471 26.594 22.7042Z" fill="#151313"/>
<path fill-rule="evenodd" clip-rule="evenodd" d="M21.907 13.7603C21.6706 14.2108 21.3841 14.631 21.0549 15.0134C21.5351 15.2708 22.0838 15.4167 22.6667 15.4167C24.5537 15.4167 26.0834 13.887 26.0834 12C26.0834 10.1131 24.5537 8.58337 22.6667 8.58337C22.5564 8.58337 22.4474 8.5886 22.3398 8.59881C22.4942 9.07261 22.597 9.56974 22.6415 10.0835C22.6499 10.0834 22.6583 10.0834 22.6667 10.0834C23.7252 10.0834 24.5834 10.9415 24.5834 12C24.5834 13.0586 23.7252 13.9167 22.6667 13.9167C22.3968 13.9167 22.1399 13.8609 21.907 13.7603Z" fill="#151313"/>
<path fill-rule="evenodd" clip-rule="evenodd" d="M9.66022 8.59881C9.55262 8.5886 9.44357 8.58337 9.33329 8.58337C7.44632 8.58337 5.91663 10.1131 5.91663 12C5.91663 13.887 7.44632 15.4167 9.33329 15.4167C9.91615 15.4167 10.4649 15.2708 10.945 15.0134C10.6159 14.631 10.3294 14.2108 10.093 13.7603C9.86004 13.8609 9.60318 13.9167 9.33329 13.9167C8.27475 13.9167 7.41663 13.0586 7.41663 12C7.41663 10.9415 8.27475 10.0834 9.33329 10.0834C9.34169 10.0834 9.35007 10.0834 9.35845 10.0835C9.40297 9.56974 9.50578 9.07261 9.66022 8.59881Z" fill="#151313"/>
</svg>
