<svg width="37" height="37" viewBox="0 0 37 37" fill="none" xmlns="http://www.w3.org/2000/svg">
<path fill-rule="evenodd" clip-rule="evenodd" d="M18.261 2.38037C18.8914 2.38037 19.4023 2.89135 19.4023 3.52168V5.04341C19.4023 5.67374 18.8914 6.18472 18.261 6.18472C17.6307 6.18472 17.1197 5.67374 17.1197 5.04341V3.52168C17.1197 2.89135 17.6307 2.38037 18.261 2.38037ZM27.3915 18.7391C27.3915 23.7817 23.3036 27.8695 18.261 27.8695C13.2184 27.8695 9.13061 23.7817 9.13061 18.7391C9.13061 13.6965 13.2184 9.60863 18.261 9.60863C23.3036 9.60863 27.3915 13.6965 27.3915 18.7391ZM19.4023 32.4347C19.4023 31.8044 18.8914 31.2934 18.261 31.2934C17.6307 31.2934 17.1197 31.8044 17.1197 32.4347V33.9565C17.1197 34.5868 17.6307 35.0978 18.261 35.0978C18.8914 35.0978 19.4023 34.5868 19.4023 33.9565V32.4347ZM29.8284 7.17156C30.2741 7.61727 30.2741 8.3399 29.8284 8.78561L28.7523 9.86164C28.3066 10.3073 27.584 10.3073 27.1383 9.86164C26.6926 9.41593 26.6926 8.6933 27.1383 8.24759L28.2143 7.17156C28.66 6.72585 29.3826 6.72585 29.8284 7.17156ZM9.38369 29.2303C9.8294 28.7846 9.8294 28.0619 9.38369 27.6162C8.93799 27.1705 8.21535 27.1705 7.76965 27.6162L6.69361 28.6922C6.24791 29.138 6.24791 29.8606 6.69361 30.3063C7.13932 30.752 7.86196 30.752 8.30766 30.3063L9.38369 29.2303ZM34.6197 18.7391C34.6197 19.3694 34.1088 19.8804 33.4784 19.8804H31.9567C31.3264 19.8804 30.8154 19.3694 30.8154 18.7391C30.8154 18.1087 31.3264 17.5978 31.9567 17.5978H33.4784C34.1088 17.5978 34.6197 18.1087 34.6197 18.7391ZM4.56539 19.8804C5.19571 19.8804 5.70669 19.3694 5.70669 18.7391C5.70669 18.1087 5.19571 17.5978 4.56539 17.5978H3.04365C2.41332 17.5978 1.90234 18.1087 1.90234 18.7391C1.90234 19.3694 2.41332 19.8804 3.04365 19.8804H4.56539ZM29.8284 30.3064C29.3827 30.7521 28.66 30.7521 28.2143 30.3064L27.1383 29.2303C26.6926 28.7846 26.6926 28.062 27.1383 27.6163C27.584 27.1706 28.3066 27.1706 28.7523 27.6163L29.8284 28.6923C30.2741 29.138 30.2741 29.8607 29.8284 30.3064ZM7.76966 9.86172C8.21537 10.3074 8.938 10.3074 9.38371 9.86172C9.82942 9.41602 9.82942 8.69338 9.38371 8.24767L8.30768 7.17164C7.86197 6.72593 7.13934 6.72593 6.69363 7.17164C6.24792 7.61735 6.24792 8.33998 6.69363 8.78569L7.76966 9.86172Z" fill="white"/>
</svg>
