<svg width="37" height="37" viewBox="0 0 37 37" fill="none" xmlns="http://www.w3.org/2000/svg">
<path fill-rule="evenodd" clip-rule="evenodd" d="M14.2884 5.74541C14.7341 5.29971 15.4567 5.29971 15.9024 5.74541L16.7938 6.63683C17.5367 7.37967 18.7411 7.37967 19.4839 6.63683L20.3753 5.74541C20.821 5.29971 21.5437 5.29971 21.9894 5.74541C22.4351 6.19112 22.4351 6.91375 21.9894 7.35946L21.098 8.25087C20.5741 8.77475 19.9459 9.13069 19.2802 9.3187V16.7497L25.7155 13.0343C25.5455 12.3637 25.5396 11.6416 25.7313 10.9259L26.0576 9.70824C26.2208 9.09939 26.8466 8.73808 27.4554 8.90122C28.0643 9.06436 28.4256 9.69018 28.2625 10.299L27.9362 11.5167C27.6643 12.5315 28.2665 13.5745 29.2812 13.8464L30.4989 14.1727C31.1078 14.3358 31.4691 14.9616 31.3059 15.5705C31.1428 16.1793 30.517 16.5406 29.9081 16.3775L28.6904 16.0512C27.9749 15.8595 27.3525 15.4934 26.8569 15.011L20.4218 18.7263L26.8569 22.4417C27.3525 21.9593 27.9749 21.5932 28.6904 21.4015L29.9081 21.0752C30.517 20.9121 31.1428 21.2734 31.3059 21.8822C31.4691 22.4911 31.1078 23.1169 30.4989 23.28L29.2812 23.6063C28.2665 23.8782 27.6643 24.9212 27.9362 25.936L28.2625 27.1537C28.4256 27.7625 28.0643 28.3883 27.4554 28.5515C26.8466 28.7146 26.2208 28.3533 26.0576 27.7445L25.7314 26.5268C25.5396 25.8111 25.5455 25.089 25.7155 24.4184L19.2802 20.703V28.134C19.9459 28.322 20.5741 28.678 21.098 29.2018L21.9894 30.0932C22.4351 30.5389 22.4351 31.2616 21.9894 31.7073C21.5437 32.153 20.821 32.153 20.3753 31.7073L19.4839 30.8159C18.7411 30.073 17.5367 30.073 16.7938 30.8159L15.9024 31.7073C15.4567 32.153 14.7341 32.153 14.2884 31.7073C13.8427 31.2616 13.8427 30.5389 14.2884 30.0932L15.1798 29.2018C15.7037 28.6779 16.3319 28.322 16.9976 28.134V20.7033L10.5623 24.4187C10.7323 25.0892 10.7381 25.8111 10.5464 26.5267L10.2201 27.7444C10.057 28.3532 9.43114 28.7146 8.82229 28.5514C8.21344 28.3883 7.85213 27.7625 8.01527 27.1536L8.34155 25.9359C8.61345 24.9212 8.01125 23.8781 6.99651 23.6062L5.77881 23.28C5.16997 23.1168 4.80865 22.491 4.97179 21.8822C5.13493 21.2733 5.76075 20.912 6.3696 21.0751L7.58729 21.4014C8.30299 21.5932 8.92541 21.9593 9.42108 22.4419L15.8565 18.7263L9.42109 15.0108C8.92542 15.4934 8.303 15.8595 7.5873 16.0513L6.3696 16.3776C5.76076 16.5407 5.13494 16.1794 4.9718 15.5705C4.80866 14.9617 5.16997 14.3359 5.77882 14.1727L6.99652 13.8465C8.01126 13.5746 8.61346 12.5315 8.34156 11.5168L8.01528 10.2991C7.85214 9.69024 8.21345 9.06442 8.8223 8.90128C9.43115 8.73814 10.057 9.09946 10.2201 9.70831L10.5464 10.926C10.7381 11.6416 10.7323 12.3635 10.5623 13.034L16.9976 16.7494V9.31872C16.3319 9.13072 15.7037 8.77477 15.1798 8.25088L14.2884 7.35946C13.8427 6.91375 13.8427 6.19112 14.2884 5.74541Z" fill="white"/>
</svg>
