<svg width="33" height="33" viewBox="0 0 33 33" fill="none" xmlns="http://www.w3.org/2000/svg">
<path fill-rule="evenodd" clip-rule="evenodd" d="M16.5 1.71875C17.0695 1.71875 17.5312 2.18046 17.5312 2.75V4.125C17.5312 4.69454 17.0695 5.15625 16.5 5.15625C15.9305 5.15625 15.4687 4.69454 15.4687 4.125V2.75C15.4687 2.18046 15.9305 1.71875 16.5 1.71875ZM24.75 16.5C24.75 21.0564 21.0563 24.75 16.5 24.75C11.9437 24.75 8.25 21.0564 8.25 16.5C8.25 11.9437 11.9437 8.25 16.5 8.25C21.0563 8.25 24.75 11.9437 24.75 16.5ZM17.5312 28.875C17.5312 28.3055 17.0695 27.8438 16.5 27.8438C15.9305 27.8438 15.4687 28.3055 15.4687 28.875V30.25C15.4687 30.8195 15.9305 31.2813 16.5 31.2813C17.0695 31.2813 17.5312 30.8195 17.5312 30.25V28.875ZM26.9519 6.04793C27.3546 6.45066 27.3546 7.10361 26.9519 7.50634L25.9796 8.47861C25.5769 8.88134 24.9239 8.88134 24.5212 8.47861C24.1185 8.07588 24.1185 7.42293 24.5212 7.0202L25.4935 6.04793C25.8962 5.6452 26.5492 5.6452 26.9519 6.04793ZM8.47868 25.9795C8.88141 25.5768 8.88141 24.9239 8.47868 24.5211C8.07596 24.1184 7.42301 24.1184 7.02028 24.5211L6.04801 25.4934C5.64528 25.8961 5.64528 26.5491 6.04801 26.9518C6.45073 27.3545 7.10368 27.3545 7.50641 26.9518L8.47868 25.9795ZM31.2812 16.5C31.2812 17.0695 30.8195 17.5312 30.25 17.5312H28.875C28.3055 17.5312 27.8437 17.0695 27.8437 16.5C27.8437 15.9305 28.3055 15.4687 28.875 15.4687H30.25C30.8195 15.4687 31.2812 15.9305 31.2812 16.5ZM4.125 17.5312C4.69454 17.5312 5.15625 17.0695 5.15625 16.5C5.15625 15.9305 4.69454 15.4687 4.125 15.4687H2.75C2.18046 15.4687 1.71875 15.9305 1.71875 16.5C1.71875 17.0695 2.18046 17.5312 2.75 17.5312H4.125ZM26.9519 26.9519C26.5492 27.3546 25.8962 27.3546 25.4935 26.9519L24.5212 25.9796C24.1185 25.5769 24.1185 24.9239 24.5212 24.5212C24.924 24.1185 25.5769 24.1185 25.9796 24.5212L26.9519 25.4935C27.3546 25.8962 27.3546 26.5492 26.9519 26.9519ZM7.02029 8.47868C7.42302 8.88141 8.07597 8.88141 8.4787 8.47868C8.88142 8.07596 8.88142 7.42301 8.4787 7.02028L7.50642 6.04801C7.1037 5.64528 6.45075 5.64528 6.04802 6.04801C5.64529 6.45073 5.64529 7.10368 6.04802 7.50641L7.02029 8.47868Z" fill="white"/>
</svg>
