<svg width="33" height="33" viewBox="0 0 33 33" fill="none" xmlns="http://www.w3.org/2000/svg">
<path fill-rule="evenodd" clip-rule="evenodd" d="M12.9104 4.75908C13.3131 4.35635 13.9661 4.35635 14.3688 4.75908L15.1742 5.56453C15.8455 6.23575 16.9337 6.23575 17.6049 5.56453L18.4104 4.75908C18.8131 4.35635 19.4661 4.35635 19.8688 4.75908C20.2715 5.16181 20.2715 5.81476 19.8688 6.21749L19.0633 7.02294C18.59 7.4963 18.0223 7.81792 17.4209 7.9878V14.7022L23.2356 11.3451C23.082 10.7392 23.0766 10.0867 23.2499 9.44005L23.5447 8.33977C23.6922 7.78964 24.2576 7.46316 24.8078 7.61057C25.3579 7.75798 25.6844 8.32345 25.537 8.87359L25.2421 9.97386C24.9965 10.8908 25.5406 11.8332 26.4575 12.0789L27.5578 12.3737C28.1079 12.5211 28.4344 13.0866 28.287 13.6367C28.1396 14.1869 27.5741 14.5133 27.0239 14.3659L25.9237 14.0711C25.2771 13.8979 24.7148 13.5671 24.2669 13.1312L18.4523 16.4883L24.2669 19.8453C24.7148 19.4094 25.2771 19.0787 25.9237 18.9054L27.024 18.6106C27.5741 18.4632 28.1396 18.7897 28.287 19.3398C28.4344 19.89 28.1079 20.4554 27.5578 20.6029L26.4575 20.8977C25.5406 21.1434 24.9965 22.0858 25.2422 23.0027L25.537 24.103C25.6844 24.6531 25.3579 25.2186 24.8078 25.366C24.2576 25.5134 23.6922 25.1869 23.5447 24.6368L23.2499 23.5365C23.0767 22.8898 23.082 22.2374 23.2356 21.6315L17.4209 18.2743V24.9888C18.0223 25.1586 18.59 25.4803 19.0633 25.9536L19.8688 26.7591C20.2715 27.1618 20.2715 27.8148 19.8688 28.2175C19.4661 28.6202 18.8131 28.6202 18.4104 28.2175L17.6049 27.412C16.9337 26.7408 15.8455 26.7408 15.1742 27.412L14.3688 28.2175C13.9661 28.6202 13.3131 28.6202 12.9104 28.2175C12.5076 27.8148 12.5076 27.1618 12.9104 26.7591L13.7158 25.9536C14.1892 25.4802 14.7569 25.1586 15.3584 24.9887V18.2746L9.54361 21.6317C9.6972 22.2375 9.70247 22.8899 9.52922 23.5365L9.2344 24.6367C9.087 25.1869 8.52152 25.5133 7.97139 25.3659C7.42125 25.2185 7.09477 24.6531 7.24218 24.1029L7.537 23.0026C7.78268 22.0857 7.23855 21.1433 6.32166 20.8976L5.22139 20.6028C4.67125 20.4554 4.34477 19.8899 4.49218 19.3398C4.63959 18.7896 5.20506 18.4632 5.7552 18.6106L6.85547 18.9054C7.50216 19.0787 8.06456 19.4095 8.51244 19.8455L14.3273 16.4883L8.51245 13.1311C8.06457 13.5671 7.50217 13.8979 6.85548 14.0712L5.75521 14.366C5.20507 14.5134 4.6396 14.1869 4.49219 13.6368C4.34478 13.0867 4.67126 12.5212 5.22139 12.3738L6.32167 12.079C7.23856 11.8333 7.78269 10.8908 7.53701 9.97392L7.24219 8.87365C7.09478 8.32351 7.42126 7.75804 7.97139 7.61063C8.52153 7.46322 9.087 7.7897 9.23441 8.33983L9.52923 9.44011C9.70248 10.0867 9.6972 10.739 9.54362 11.3448L15.3584 14.702V7.98782C14.7569 7.81794 14.1892 7.49632 13.7158 7.02294L12.9104 6.21749C12.5076 5.81476 12.5076 5.16181 12.9104 4.75908Z" fill="white"/>
</svg>
