<svg width="24" height="24" viewBox="0 0 24 24" fill="none" xmlns="http://www.w3.org/2000/svg">
<g clip-path="url(#clip0_420_4341)">
<rect width="24" height="24" fill="white"/>
<path d="M23.093 16.7406C23.6725 17.3217 23.9979 18.1089 23.9979 18.9296C23.9979 19.7503 23.6725 20.5375 23.093 21.1186L22.183 22.1676C13.993 30.0086 -5.93701 10.0836 1.78298 1.8676L2.93298 0.867597C3.51475 0.304274 4.29491 -0.00735395 5.10468 0.00013181C5.91445 0.00761757 6.68872 0.333615 7.25998 0.907597C7.29098 0.938597 9.14398 3.3456 9.14398 3.3456C9.6938 3.92323 9.99988 4.69053 9.99858 5.488C9.99727 6.28547 9.68869 7.05177 9.13698 7.6276L7.97898 9.0836C8.61982 10.6407 9.56204 12.0558 10.7515 13.2477C11.9409 14.4395 13.3542 15.3846 14.91 16.0286L16.375 14.8636C16.9509 14.3123 17.717 14.0041 18.5143 14.003C19.3115 14.0019 20.0785 14.3079 20.656 14.8576C20.656 14.8576 23.062 16.7096 23.093 16.7406ZM21.717 18.1946C21.717 18.1946 19.324 16.3536 19.293 16.3226C19.0869 16.1183 18.8086 16.0037 18.5185 16.0037C18.2283 16.0037 17.95 16.1183 17.744 16.3226C17.717 16.3506 15.7 17.9576 15.7 17.9576C15.564 18.0658 15.4023 18.1367 15.2306 18.1634C15.0589 18.19 14.8833 18.1715 14.721 18.1096C12.7054 17.3592 10.8747 16.1843 9.35281 14.6647C7.83091 13.145 6.65338 11.316 5.89998 9.3016C5.83318 9.13705 5.8114 8.95769 5.83688 8.78194C5.86237 8.60619 5.93419 8.44039 6.04498 8.3016C6.04498 8.3016 7.65198 6.2836 7.67898 6.2576C7.88324 6.05158 7.99786 5.77321 7.99786 5.4831C7.99786 5.19298 7.88324 4.91461 7.67898 4.7086C7.64798 4.6786 5.80698 2.2836 5.80698 2.2836C5.59788 2.0961 5.32498 1.99569 5.04423 2.00294C4.76347 2.0102 4.49612 2.12456 4.29698 2.3226L3.14698 3.3226C-2.49501 10.1066 14.776 26.4196 20.721 20.8016L21.632 19.7516C21.8454 19.5539 21.9737 19.2809 21.9895 18.9903C22.0054 18.6997 21.9076 18.4144 21.717 18.1946Z" fill="#151313"/>
</g>
<defs>
<clipPath id="clip0_420_4341">
<rect width="24" height="24" fill="white"/>
</clipPath>
</defs>
</svg>
