<?xml version="1.0" encoding="UTF-8"?>
<!-- Generated by Pixelmator Pro 3.1.1 -->
<svg width="508" height="100" viewBox="0 0 508 100" xmlns="http://www.w3.org/2000/svg" xmlns:xlink="http://www.w3.org/1999/xlink">
    <g id="g1">
        <path id="path1" fill="#d9dcdc" fill-rule="evenodd" stroke="none" d="M 199.067993 8.5 C 197.938004 3.528198 193.518005 0 188.419998 0 L 20 0 C 8.9543 0 0 8.954285 0 20 L 0 681 C 0 692.046021 8.9543 701 20 701 L 488 701 C 499.04599 701 508 692.046021 508 681 L 508 20 C 508 8.954285 499.04599 0 488 0 L 318.579987 0 C 313.481995 0 309.062012 3.528198 307.932007 8.5 C 306.802002 13.471802 302.381989 17 297.28299 17 L 209.716995 17 C 204.617996 17 200.197998 13.471802 199.067993 8.5 Z"/>
    </g>
</svg>
