<svg width="74" height="75" viewBox="0 0 74 75" fill="none" xmlns="http://www.w3.org/2000/svg">
<path d="M21.6393 16.0056L10.8522 26.7926C0.735472 36.9094 0.735472 53.3033 10.8522 63.42C20.9689 73.5367 37.3628 73.5367 47.4795 63.42L65.7932 45.1063C66.5868 44.3028 67.1932 43.334 67.5691 42.269C67.9449 41.204 68.081 40.0692 67.9674 38.9455C67.8539 37.8219 67.4936 36.7372 66.9123 35.7689C66.3311 34.8006 65.5431 33.9726 64.6048 33.3441L65.7932 32.1557C68.749 29.1999 68.749 24.3549 65.7932 21.3686C65.3057 20.8811 64.7267 20.4545 64.1477 20.1193C64.8175 18.5984 64.9709 16.9002 64.5846 15.2839C64.1983 13.6676 63.2935 12.2223 62.0084 11.1687C60.7234 10.115 59.1287 9.51109 57.4681 9.4491C55.8075 9.3871 54.1722 9.87045 52.8121 10.8253C52.1921 9.87026 51.3671 9.06525 50.3972 8.46872C49.4273 7.87219 48.3367 7.49911 47.2046 7.37657C46.0725 7.25403 44.9274 7.38509 43.8523 7.76025C42.7772 8.13541 41.7991 8.74524 40.989 9.54549L33.3405 17.194C32.7197 16.2552 31.898 15.466 30.9349 14.8836C29.9718 14.3012 28.8913 13.9401 27.7716 13.8264C26.6518 13.7126 25.5208 13.8491 24.4602 14.226C23.3997 14.6029 22.4362 15.2107 21.6393 16.0056V16.0056ZM25.9358 20.3326C26.5453 19.7231 27.4899 19.7231 28.0993 20.3326C28.7088 20.942 28.7088 21.8867 28.0993 22.4961L18.4092 32.1862C20.1212 33.9002 21.0827 36.2237 21.0827 38.6463C21.0827 41.0688 20.1212 43.3923 18.4092 45.1063L22.7058 49.4029C24.8002 47.3065 26.2384 44.6453 26.8445 41.7446C27.4506 38.8439 27.1984 35.8295 26.1187 33.0699L45.316 13.8725C45.9255 13.2631 46.8701 13.2631 47.4795 13.8725C48.089 14.482 48.089 15.4266 47.4795 16.036L33.4624 30.0532L37.759 34.3497L56.0726 16.036C56.6821 15.4266 57.6267 15.4266 58.2362 16.036C58.8456 16.6455 58.8456 17.5901 58.2362 18.1995L39.9225 36.5132L44.219 40.8098L59.3027 25.7261C59.9121 25.1167 60.8567 25.1167 61.4662 25.7261C62.0756 26.3356 62.0756 27.2802 61.4662 27.8896L44.219 45.1368L48.5156 49.4334L59.3027 38.6463C59.9121 38.0368 60.8567 38.0368 61.4662 38.6463C62.0756 39.2557 62.0756 40.2003 61.4662 40.8098L43.183 59.1234C35.4431 66.8633 22.9191 66.8633 15.1792 59.1234C7.43931 51.3836 7.43931 38.8596 15.1792 31.1197L25.9358 20.3326V20.3326ZM70.3031 52.7243C70.3031 62.8106 62.1061 71.0075 52.0199 71.0075V66.4367C59.5769 66.4367 65.7323 60.2814 65.7323 52.7243H70.3031ZM3.26465 22.2523C3.26465 12.1661 11.4616 3.96912 21.5479 3.96912V8.53992C13.9908 8.53992 7.83545 14.6953 7.83545 22.2523H3.26465Z" fill="white"/>
</svg>
