<svg width="133" height="84" viewBox="0 0 133 84" fill="none" xmlns="http://www.w3.org/2000/svg">
<g clip-path="url(#clip0_1_252)">
<path d="M68.0167 62.4179H73.2571V34.1328H68.0167V62.4179ZM61.7305 62.4179H66.9698V27.8467H61.7305V62.4179ZM55.4457 62.4179H60.6837V34.1328H55.4457V62.4179Z" fill="#7F8B8A"/>
<path d="M85.8246 30.9861L80.5902 36.2241V18.3995H85.8294M79.542 37.2698L74.3028 42.5115V12.1075H79.542M68.0167 33.0835H73.2583V5.83686H68.0167V33.0835ZM61.7306 26.7974H66.9687V-0.444458H61.7306V26.7974ZM55.4457 33.0835H60.6825V5.83686H55.4457V33.0835ZM54.3964 42.5103L49.1572 37.2698V12.1075H54.3964M42.8722 18.3995V30.9849L48.1091 36.2253V18.3995M13.7199 68.8717C16.342 68.8717 18.4848 70.981 18.4848 73.5587V74.5649C18.4848 76.758 16.9337 78.6099 14.8602 79.1154L19.1736 84.4444H12.945L8.7418 79.2531H6.1965V84.4444H-0.0321241V68.8729C-0.100351 68.8729 7.29369 68.8719 13.7199 68.8719M6.1965 75.6191H11.4884C12.2742 75.6191 12.9186 74.9867 12.9186 74.213V73.9123C12.9186 73.1374 12.2753 72.5061 11.4884 72.5061H6.1965M44.6367 84.4435H53.4609C56.174 84.4435 58.3935 82.2251 58.3935 79.5133C58.3935 76.799 56.174 74.5818 53.4609 74.5818H47.2934C46.8322 74.5818 46.4537 74.2046 46.4537 73.7446V73.3422C46.4537 72.8822 46.831 72.5061 47.2934 72.5061H51.3252C51.7863 72.5061 52.1637 72.8822 52.1637 73.3422V73.5422H58.3863C58.2486 70.9502 56.0865 68.8719 53.4609 68.8719H44.6367C41.926 68.8719 39.7052 71.0903 39.7052 73.8034C39.7052 76.5152 41.926 78.7336 44.6367 78.7336H50.8065C51.2677 78.7336 51.6462 79.1108 51.6462 79.572V79.9732C51.6462 80.4332 51.2665 80.8117 50.8065 80.8117H46.7736C46.3123 80.8117 45.9351 80.4332 45.9351 79.9732V79.7733H39.7124C39.849 82.3628 42.0122 84.4435 44.6367 84.4435ZM72.9277 84.4435H79.1552V68.8719H72.9277V77.8472L65.6594 68.8719H59.432V84.4435H65.6594V75.4695M98.2998 84.4435H104.53V78.7335H113.863V74.5819L104.53 74.5556V73.0248H115.031V68.8719H98.2998M19.1771 76.6361C19.1771 81.7364 22.5107 84.4435 29.095 84.4435C35.6806 84.4435 39.0141 81.7364 39.0141 76.6361C39.0141 71.5346 35.6806 68.8719 29.095 68.8719C22.5107 68.8719 19.1771 71.5347 19.1771 76.6361ZM29.095 72.5048C31.1193 72.5048 32.7735 73.9123 32.7735 75.6372V77.6782C32.7735 79.4018 31.1193 80.8129 29.095 80.8129C27.0731 80.8129 25.4177 79.4018 25.4177 77.6782V75.6372C25.4177 73.9123 27.0731 72.5048 29.095 72.5048ZM80.3685 84.4435H97.6087V80.2919H86.596V78.7336H95.9281V74.5819L86.596 74.5556V73.0248H97.0972V68.8719H80.3685M121.341 84.4435H127.572V73.0247H133.033V68.8732H115.723V73.0247H121.341" fill="#7F8B8A"/>
</g>
<defs>
<clipPath id="clip0_1_252">
<rect width="133" height="84" fill="white"/>
</clipPath>
</defs>
</svg>
