<svg width="35" height="36" viewBox="0 0 35 36" fill="none" xmlns="http://www.w3.org/2000/svg">
<path fill-rule="evenodd" clip-rule="evenodd" d="M28.6764 15.6033C28.6764 22.8234 22.8234 28.6764 15.6033 28.6764C8.38327 28.6764 2.53027 22.8234 2.53027 15.6033C2.53027 8.38327 8.38327 2.53027 15.6033 2.53027C22.8234 2.53027 28.6764 8.38327 28.6764 15.6033ZM15.6033 31.2066C24.2208 31.2066 31.2066 24.2208 31.2066 15.6033C31.2066 6.98584 24.2208 0 15.6033 0C6.98584 0 0 6.98584 0 15.6033C0 24.2208 6.98584 31.2066 15.6033 31.2066ZM34.0236 34.0265C32.7229 35.3272 30.6139 35.3272 29.3132 34.0265L26.1539 30.8672C27.9928 29.5934 29.5904 27.9957 30.8643 26.1568L34.0236 29.3161C35.3243 30.6168 35.3243 32.7257 34.0236 34.0265Z" fill="white"/>
<path fill-rule="evenodd" clip-rule="evenodd" d="M16.5 10.8008C16.5 10.2485 16.0523 9.80078 15.5 9.80078C14.9477 9.80078 14.5 10.2485 14.5 10.8008V15.0005L10.0996 15.0005C9.54732 15.0005 9.09961 15.4482 9.09961 16.0005C9.09961 16.5528 9.54732 17.0005 10.0996 17.0005L14.5 17.0005V21.4012C14.5 21.9535 14.9477 22.4012 15.5 22.4012C16.0523 22.4012 16.5 21.9535 16.5 21.4012V17.0005L20.7001 17.0005C21.2523 17.0005 21.7001 16.5528 21.7001 16.0005C21.7001 15.4482 21.2523 15.0005 20.7001 15.0005L16.5 15.0005V10.8008Z" fill="white"/>
</svg>
