<svg width="30" height="31" viewBox="0 0 30 31" fill="none" xmlns="http://www.w3.org/2000/svg">
<path fill-rule="evenodd" clip-rule="evenodd" d="M27.5411 24.5162C27.5411 27.8209 24.7336 30.5 21.2705 30.5H8.72947C5.26636 30.5 2.45895 27.8209 2.45895 24.5162V17.1996C2.45895 16.1372 2.01671 15.1184 1.22953 14.3672C-0.594292 12.6268 -0.357196 9.74307 1.72876 8.29537L11.3119 1.64449C13.5106 0.118502 16.4894 0.118503 18.6881 1.64449L28.2712 8.29537C30.3572 9.74307 30.5943 12.6268 28.7705 14.3672C27.9833 15.1184 27.5411 16.1372 27.5411 17.1996V24.5162ZM15 24.5C16.6569 24.5 18 23.1569 18 21.5C18 19.8431 16.6569 18.5 15 18.5C13.3431 18.5 12 19.8431 12 21.5C12 23.1569 13.3431 24.5 15 24.5Z" fill="#A5B2B1"/>
</svg>
