<svg width="30" height="31" viewBox="0 0 30 31" fill="none" xmlns="http://www.w3.org/2000/svg">
<path fill-rule="evenodd" clip-rule="evenodd" d="M30 15.5C30 20.0201 28.0007 24.0732 24.8383 26.8232C22.2046 29.1135 18.7642 30.5 15 30.5C11.2358 30.5 7.79541 29.1135 5.16175 26.8232C1.99927 24.0731 0 20.0201 0 15.5C0 7.21573 6.71573 0.5 15 0.5C23.2843 0.5 30 7.21573 30 15.5ZM15 26C17.635 26 20.0432 25.0294 21.8868 23.4263C22.099 23.2417 22.3038 23.0488 22.5005 22.848C20.8792 20.2255 18.125 18.5 15 18.5C11.8751 18.5 9.1209 20.2255 7.49954 22.848C7.69629 23.0488 7.90103 23.2417 8.11326 23.4263C9.95682 25.0294 12.3651 26 15 26ZM15 15.5C17.4853 15.5 19.5 13.4853 19.5 11C19.5 8.51472 17.4853 6.5 15 6.5C12.5147 6.5 10.5 8.51472 10.5 11C10.5 13.4853 12.5147 15.5 15 15.5Z" fill="#A5B2B1"/>
</svg>
