<svg width="33" height="31" viewBox="0 0 33 31" fill="none" xmlns="http://www.w3.org/2000/svg">
<path d="M17.6218 25.2214L25.3695 29.957C26.3687 30.5637 27.5985 29.661 27.3064 28.5511L25.062 20.0567C25.0013 19.8213 25.011 19.5741 25.0899 19.3437C25.1687 19.1133 25.3136 18.9091 25.5078 18.7545L32.4561 13.1754C33.3631 12.4503 32.9019 10.9852 31.7182 10.9112L22.6486 10.3489C22.4011 10.335 22.1632 10.2521 21.9639 10.1102C21.7646 9.96825 21.6126 9.77352 21.5264 9.54978L18.1445 1.35138C18.055 1.11446 17.8919 0.909792 17.6774 0.765169C17.4629 0.620546 17.2073 0.542969 16.9454 0.542969C16.6836 0.542969 16.428 0.620546 16.2135 0.765169C15.999 0.909792 15.8359 1.11446 15.7464 1.35138L12.3645 9.54978C12.2783 9.77352 12.1263 9.96825 11.927 10.1102C11.7277 10.2521 11.4898 10.335 11.2423 10.3489L2.17264 10.9112C0.98897 10.9852 0.527801 12.4503 1.43477 13.1754L8.38306 18.7545C8.57726 18.9091 8.72215 19.1133 8.80102 19.3437C8.87989 19.5741 8.88954 19.8213 8.82885 20.0567L6.75359 27.9296C6.40003 29.2614 7.87577 30.3417 9.05944 29.6166L16.2691 25.2214C16.4712 25.0977 16.7059 25.032 16.9454 25.032C17.185 25.032 17.4196 25.0977 17.6218 25.2214Z" fill="#DE2C2C"/>
</svg>
