<svg width="35" height="33" viewBox="0 0 35 33" fill="none" xmlns="http://www.w3.org/2000/svg">
<path d="M17.9714 26.2214L25.7191 30.957C26.7183 31.5637 27.9481 30.661 27.656 29.5511L25.4116 21.0567C25.3509 20.8213 25.3606 20.5741 25.4395 20.3437C25.5183 20.1133 25.6632 19.9091 25.8574 19.7545L32.8057 14.1754C33.7127 13.4503 33.2515 11.9852 32.0678 11.9112L22.9982 11.3489C22.7507 11.335 22.5128 11.2521 22.3135 11.1102C22.1142 10.9682 21.9622 10.7735 21.876 10.5498L18.4941 2.35138C18.4046 2.11446 18.2415 1.90979 18.027 1.76517C17.8125 1.62055 17.5569 1.54297 17.295 1.54297C17.0332 1.54297 16.7776 1.62055 16.5631 1.76517C16.3486 1.90979 16.1855 2.11446 16.096 2.35138L12.7141 10.5498C12.6279 10.7735 12.4759 10.9682 12.2766 11.1102C12.0773 11.2521 11.8394 11.335 11.5919 11.3489L2.52225 11.9112C1.33858 11.9852 0.87741 13.4503 1.78438 14.1754L8.73267 19.7545C8.92687 19.9091 9.07176 20.1133 9.15063 20.3437C9.2295 20.5741 9.23915 20.8213 9.17846 21.0567L7.1032 28.9296C6.74964 30.2614 8.22538 31.3417 9.40905 30.6166L16.6187 26.2214C16.8208 26.0977 17.0555 26.032 17.295 26.032C17.5346 26.032 17.7693 26.0977 17.9714 26.2214V26.2214Z" stroke="#DE2C2C" stroke-width="2" stroke-linecap="round" stroke-linejoin="round"/>
</svg>
